# xmcd
#
# Track frame offsets:
# 150
# 16598
# 34784
# 55029
# 72649
# 88974
# 105483
# 124278
# 142007
# 159101
# 176638
# 194828
# 208380
# 227543
# 246097
#
# Disc length: 3500 seconds
#
#
# Revision: 0
# Processed by: cddbd v1.5.1PL2 Copyright (c) Steve Scherf et al.
# Submitted via: FreeRIP 2.945 
#
DISCID=d60daa0f
DTITLE=Rick and Renner - Só Pensando Em Você
DYEAR=2002
DGENRE=Sertaneja
TTITLE0=Você Decide
TTITLE1=É Você
TTITLE2=Só Pensando Em Você
TTITLE3=Não Quero, Mas Eu Te Amo
TTITLE4=Eu Sem Você
TTITLE5=Vou Ganhar Você
TTITLE6=Tchau Saudade
TTITLE7=Chama Por Ela
TTITLE8=Simbora Bora
TTITLE9=Noistropica, Mais Não Cai
TTITLE10=Eu Amo Essa Mulher
TTITLE11=Vontade De Te Ver
TTITLE12=Paixão Caliente
TTITLE13=Onde Anda Você
TTITLE14=Rodeio E Vaquejada
EXTD=
EXTT0=
EXTT1=
EXTT2=
EXTT3=
EXTT4=
EXTT5=
EXTT6=
EXTT7=
EXTT8=
EXTT9=
EXTT10=
EXTT11=
EXTT12=
EXTT13=
EXTT14=
PLAYORDER=
